<svg width="24" height="24" viewBox="0 0 24 24" fill="none" xmlns="http://www.w3.org/2000/svg">
<path d="M19.2925 19.2925C21.1068 17.4872 19.3103 12.747 15.2905 8.70946C11.253 4.68967 6.51281 2.89322 4.70746 4.70746C2.89322 6.51281 4.68967 11.253 8.70946 15.2905C12.747 19.3103 17.4872 21.1068 19.2925 19.2925Z" stroke="#436CFF" stroke-width="2" stroke-linecap="round" stroke-linejoin="round"/>
<path d="M15.2905 15.2905C19.3103 11.253 21.1068 6.51281 19.2925 4.70746C17.4872 2.89322 12.747 4.68967 8.70946 8.70946C4.68967 12.747 2.89322 17.4872 4.70746 19.2925C6.51281 21.1068 11.253 19.3103 15.2905 15.2905Z" stroke="#436CFF" stroke-width="2" stroke-linecap="round" stroke-linejoin="round"/>
<path d="M15 17L20 12L15 7" stroke="#2EFFF2" stroke-width="2" stroke-linecap="round" stroke-linejoin="round"/>
<path d="M9 17L4 12L9 7" stroke="#2EFFF2" stroke-width="2" stroke-linecap="round" stroke-linejoin="round"/>
</svg>
